<?xml version="1.0" standalone="no"?>
<!DOCTYPE svg PUBLIC "-//W3C//DTD SVG 20010904//EN"
 "http://www.w3.org/TR/2001/REC-SVG-20010904/DTD/svg10.dtd">
<svg version="1.0" xmlns="http://www.w3.org/2000/svg"
 width="540.000000pt" height="540.000000pt" viewBox="0 0 540.000000 540.000000"
 preserveAspectRatio="xMidYMid meet">
<metadata>
Created by potrace 1.11, written by Peter Selinger 2001-2013
</metadata>
<g transform="translate(0.000000,540.000000) scale(0.100000,-0.100000)"
fill="#000000" stroke="none">
<path d="M1155 4523 c-46 -24 -83 -63 -96 -100 -7 -22 -11 -189 -11 -511 0
-515 1 -519 54 -569 47 -44 85 -52 224 -48 71 2 138 6 149 8 11 3 43 8 70 11
219 30 522 157 735 308 175 123 275 168 390 173 142 7 246 -33 442 -168 254
-175 505 -276 798 -322 89 -13 275 -16 317 -4 46 12 96 60 115 108 15 38 14
967 -1 1013 -14 42 -54 82 -103 102 -33 14 -204 16 -1545 16 -1354 -1 -1511
-2 -1538 -17z"/>
<path d="M2633 3574 c-130 -33 -321 -187 -456 -367 -112 -149 -110 -137 -110
-792 0 -358 5 -708 18 -1150 9 -305 13 -324 87 -372 l41 -28 461 0 c254 -1
478 2 500 6 91 16 132 83 136 221 1 51 3 145 5 208 19 567 25 1423 12 1630 -8
136 -26 180 -117 293 -168 210 -353 346 -487 360 -22 2 -63 -2 -90 -9z"/>
</g>
</svg>
