<?xml version="1.0" encoding="utf-8"?>
<!-- Generator: Adobe Illustrator 25.0.1, SVG Export Plug-In . SVG Version: 6.00 Build 0)  -->
<svg version="1.1" id="Layer_1" xmlns="http://www.w3.org/2000/svg" xmlns:xlink="http://www.w3.org/1999/xlink" x="0px" y="0px"
	 viewBox="0 0 142 34" style="enable-background:new 0 0 142 34;" xml:space="preserve">
<style type="text/css">
	.st0{fill:#FFCC00;}
	.st1{fill:#FFFFFF;}
</style>
<g>
	<g>
		<path class="st0" d="M27.9,1H2.2C1.4,1,0.7,1.7,0.7,2.5v7.8c0,0.9,0.7,1.5,1.5,1.5h0.3c3.3,0,6.5-1.1,9.1-3.1
			C12.7,8,13.9,7.4,15,7.4c0,0,0.1,0,0.1,0c0,0,0.1,0,0.1,0c1.1,0,2.3,0.6,3.3,1.3c2.6,2,5.8,3.1,9.1,3.1h0.3c0.9,0,1.5-0.7,1.5-1.5
			V2.5C29.4,1.7,28.7,1,27.9,1z"/>
		<path class="st0" d="M20.3,13.7c-0.7-1.6-3.5-4.5-5.3-4.4c-1.7-0.1-4.6,2.9-5.3,4.4c-0.6,1.2,0,17.8,0,17.8c0,0.8,0.6,1.4,1.4,1.4
			H15h0h3.8c0.8,0,1.4-0.6,1.4-1.4C20.3,31.6,20.9,15,20.3,13.7z"/>
	</g>
	<g>
		<path class="st1" d="M42.1,11h-6.5V7.7h16.5V11h-6.5v17H42L42.1,11L42.1,11z"/>
		<path class="st1" d="M55.7,7.7h9.1c2.6,0,4.6,0.8,5.9,2c1.1,1.1,1.7,2.6,1.7,4.4v0.1c0,3.3-2,5.3-4.8,6.2L73,28h-4.2l-5-7.1h-4.5
			V28h-3.6L55.7,7.7L55.7,7.7z M64.5,17.8c2.6,0,4.2-1.3,4.2-3.4v-0.1c0-2.2-1.6-3.4-4.2-3.4h-5.2v6.8L64.5,17.8L64.5,17.8z"/>
		<path class="st1" d="M76.7,7.7h3.6V28h-3.6V7.7z"/>
		<path class="st1" d="M85.5,7.7h3.8l6.2,9.6l6.2-9.6h3.8V28h-3.6V13.4L95.5,23h-0.1L89,13.5V28h-3.5L85.5,7.7L85.5,7.7z"/>
		<path class="st1" d="M110.7,7.7h3.6V28h-3.6V7.7z"/>
		<path class="st1" d="M118.6,17.9L118.6,17.9c0-5.8,4.4-10.6,10.7-10.6s10.6,4.7,10.6,10.5v0.1c0,5.7-4.4,10.5-10.7,10.5
			S118.6,23.6,118.6,17.9z M136.1,17.9L136.1,17.9c0-4-2.9-7.3-6.9-7.3s-6.8,3.2-6.8,7.2v0.1c0,4,2.9,7.2,6.9,7.2
			S136.1,21.9,136.1,17.9z"/>
	</g>
</g>
</svg>
